<svg width="19" height="17" viewBox="0 0 19 17" fill="none" xmlns="http://www.w3.org/2000/svg">
<path d="M11.6076 12.6457L10.373 13.8332V8.51767C10.373 8.26771 10.2737 8.02799 10.0969 7.85124C9.92018 7.67449 9.68046 7.5752 9.4305 7.5752C9.18054 7.5752 8.94081 7.67449 8.76407 7.85124C8.58732 8.02799 8.48802 8.26771 8.48802 8.51767V13.7861L7.27223 12.5609C7.18435 12.473 7.08003 12.4033 6.96522 12.3558C6.8504 12.3082 6.72734 12.2837 6.60307 12.2837C6.4788 12.2837 6.35574 12.3082 6.24092 12.3558C6.12611 12.4033 6.02179 12.473 5.93391 12.5609C5.84604 12.6488 5.77633 12.7531 5.72877 12.8679C5.68122 12.9827 5.65674 13.1058 5.65674 13.23C5.65674 13.3543 5.68122 13.4774 5.72877 13.5922C5.77633 13.707 5.84604 13.8113 5.93391 13.8992L8.76134 16.7266C8.8494 16.814 8.95385 16.8831 9.06867 16.93C9.1835 16.9769 9.30646 17.0007 9.4305 17C9.67316 16.999 9.90609 16.9045 10.0808 16.7361L12.9082 14.0029C13.0082 13.9204 13.0901 13.8181 13.1488 13.7025C13.2075 13.5869 13.2417 13.4604 13.2493 13.3309C13.2568 13.2015 13.2376 13.0719 13.1928 12.9502C13.148 12.8286 13.0786 12.7174 12.9888 12.6238C12.8991 12.5302 12.7911 12.4561 12.6714 12.4062C12.5518 12.3562 12.4231 12.3315 12.2935 12.3336C12.1638 12.3356 12.036 12.3644 11.918 12.4181C11.8 12.4718 11.6943 12.5493 11.6076 12.6457V12.6457Z" fill="#26C6BA"/>
<path d="M14.7745 3.80532C14.3899 2.69419 13.6685 1.73057 12.7108 1.04854C11.753 0.366514 10.6064 0 9.43064 0C8.25484 0 7.10829 0.366514 6.15051 1.04854C5.19273 1.73057 4.47137 2.69419 4.0868 3.80532C3.24004 3.91873 2.44003 4.26021 1.77237 4.79321C1.1047 5.32622 0.594493 6.03071 0.296323 6.83132C-0.00184729 7.63192 -0.076762 8.49853 0.0795922 9.33842C0.235946 10.1783 0.617687 10.9599 1.18398 11.5996C1.25238 11.7201 1.34651 11.824 1.45966 11.904C1.57281 11.9839 1.7022 12.038 1.83861 12.0622C1.97502 12.0865 2.11511 12.0803 2.24888 12.0443C2.38266 12.0082 2.50684 11.9431 2.61258 11.8536C2.71832 11.764 2.80303 11.6523 2.86066 11.5263C2.91829 11.4003 2.94743 11.2632 2.94601 11.1246C2.94459 10.9861 2.91264 10.8495 2.85243 10.7248C2.79223 10.6 2.70525 10.49 2.59769 10.4026C2.23306 9.99499 1.99449 9.49033 1.9109 8.94982C1.8273 8.40931 1.90227 7.85615 2.12671 7.35739C2.35116 6.85863 2.71544 6.43567 3.17542 6.13977C3.6354 5.84386 4.17133 5.68773 4.71826 5.69027H4.81251C5.033 5.69472 5.24806 5.6217 5.42027 5.48394C5.59248 5.34617 5.71092 5.15238 5.75499 4.93629C5.92804 4.08407 6.39039 3.31789 7.0637 2.76756C7.73701 2.21722 8.57988 1.91659 9.44949 1.91659C10.3191 1.91659 11.162 2.21722 11.8353 2.76756C12.5086 3.31789 12.9709 4.08407 13.144 4.93629C13.1881 5.15238 13.3065 5.34617 13.4787 5.48394C13.6509 5.6217 13.866 5.69472 14.0865 5.69027H14.143C14.6899 5.68773 15.2259 5.84386 15.6859 6.13977C16.1458 6.43567 16.5101 6.85863 16.7346 7.35739C16.959 7.85615 17.034 8.40931 16.9504 8.94982C16.8668 9.49033 16.6282 9.99499 16.2636 10.4026C16.1806 10.4957 16.1169 10.6044 16.0761 10.7223C16.0354 10.8402 16.0185 10.965 16.0264 11.0895C16.0343 11.214 16.0668 11.3357 16.1221 11.4475C16.1774 11.5594 16.2543 11.6591 16.3484 11.741C16.5202 11.8925 16.7414 11.9763 16.9704 11.9766C17.1043 11.9764 17.2365 11.9477 17.3584 11.8925C17.4803 11.8372 17.589 11.7567 17.6773 11.6561C18.2593 11.0176 18.6545 10.2313 18.8198 9.38321C18.9851 8.53516 18.914 7.65799 18.6143 6.8476C18.3147 6.03722 17.798 5.32481 17.1208 4.78826C16.4436 4.25171 15.6319 3.91167 14.7745 3.80532V3.80532Z" fill="#26C6BA"/>
</svg>
