<svg width="20" height="20" viewBox="0 0 20 20" fill="none" xmlns="http://www.w3.org/2000/svg">
<path fill-rule="evenodd" clip-rule="evenodd" d="M2.05349 3.92957L0.533683 2.40976C0.489983 2.36595 0.434258 2.3361 0.373573 2.324C0.312887 2.31189 0.249975 2.31808 0.192812 2.34178C0.135648 2.36547 0.0868073 2.40561 0.0524812 2.4571C0.0181552 2.50858 -0.000110214 2.5691 5.00344e-07 2.63098V7.18791C5.00344e-07 7.36038 0.139983 7.50037 0.312461 7.50037H4.86939C4.93127 7.50048 4.99179 7.48221 5.04327 7.44789C5.09476 7.41356 5.13489 7.36472 5.15859 7.30756C5.18229 7.25039 5.18847 7.18748 5.17637 7.12679C5.16427 7.06611 5.13442 7.01038 5.09061 6.96668L3.39332 5.2694C4.49972 3.72415 6.11286 2.61571 7.95207 2.13693C9.79127 1.65814 11.7401 1.83933 13.4596 2.64895C15.179 3.45857 16.5601 4.84539 17.3627 6.56811C18.1653 8.29083 18.3385 10.2404 17.8522 12.0776C17.3659 13.9149 16.2509 15.5235 14.7011 16.6235C13.1514 17.7236 11.265 18.2455 9.37017 18.0985C7.47536 17.9515 5.69208 17.1448 4.33058 15.8188C2.96908 14.4928 2.11556 12.7315 1.91851 10.8412C1.89298 10.5937 1.77021 10.3666 1.57719 10.2096C1.38417 10.0527 1.13671 9.9789 0.889263 10.0044C0.641814 10.0299 0.41464 10.1527 0.257715 10.3457C0.10079 10.5388 0.02697 10.7862 0.0524939 11.0337C0.292949 13.3474 1.33252 15.505 2.99225 17.1349C4.65198 18.7648 6.82802 19.7651 9.14576 19.9635C11.4635 20.162 13.7779 19.5462 15.6906 18.2222C17.6032 16.8982 18.9945 14.9488 19.6248 12.7096C20.2551 10.4704 20.0851 8.08153 19.1439 5.95419C18.2028 3.82686 16.5494 2.09419 14.4685 1.05447C12.3876 0.0147436 10.0093 -0.266983 7.74302 0.257789C5.47676 0.78256 3.46436 2.081 2.05224 3.92957H2.05349ZM9.68628 5.00068C9.93489 5.00068 10.1733 5.09944 10.3491 5.27523C10.5249 5.45103 10.6237 5.68945 10.6237 5.93806V9.67759L13.1583 10.6925C13.3817 10.7898 13.5584 10.9704 13.6509 11.1958C13.7434 11.4212 13.7446 11.6738 13.654 11.9C13.5635 12.1262 13.3885 12.3083 13.166 12.4077C12.9435 12.507 12.6911 12.5158 12.4622 12.4322L9.33757 11.1824C9.16381 11.1128 9.01487 10.9927 8.90995 10.8377C8.80503 10.6826 8.74894 10.4997 8.7489 10.3125V5.93806C8.7489 5.68945 8.84766 5.45103 9.02345 5.27523C9.19924 5.09944 9.43767 5.00068 9.68628 5.00068V5.00068Z" fill="#828282"/>
</svg>
