<svg width="16" height="20" viewBox="0 0 16 20" fill="none" xmlns="http://www.w3.org/2000/svg">
<path d="M2.85711 18.5714H12.8571C13.3333 18.5714 13.5714 18.8095 13.5714 19.2857C13.5714 19.7619 13.3333 20 12.8571 20H2.85711C2.38092 20 2.14282 19.7619 2.14282 19.2857C2.14282 18.8095 2.38092 18.5714 2.85711 18.5714Z" fill="#828282"/>
<path d="M14.2857 7.85714C14.2857 6.15218 13.6084 4.51705 12.4028 3.31146C11.1972 2.10587 9.56211 1.42857 7.85714 1.42857C6.15218 1.42857 4.51705 2.10587 3.31146 3.31146C2.10587 4.51705 1.42857 6.15218 1.42857 7.85714C1.42857 10.4943 3.53857 13.9314 7.85714 18.0486C12.1757 13.9314 14.2857 10.4943 14.2857 7.85714ZM7.85714 20C2.61857 15.2386 0 11.19 0 7.85714C0 5.7733 0.827804 3.7748 2.3013 2.3013C3.7748 0.827804 5.7733 0 7.85714 0C9.94099 0 11.9395 0.827804 13.413 2.3013C14.8865 3.7748 15.7143 5.7733 15.7143 7.85714C15.7143 11.19 13.0957 15.2386 7.85714 20Z" fill="#828282"/>
<path d="M7.8572 10C8.42552 10 8.97056 9.77424 9.37242 9.37238C9.77429 8.97051 10.0001 8.42547 10.0001 7.85715C10.0001 7.28883 9.77429 6.74378 9.37242 6.34192C8.97056 5.94006 8.42552 5.71429 7.8572 5.71429C7.28887 5.71429 6.74383 5.94006 6.34197 6.34192C5.9401 6.74378 5.71434 7.28883 5.71434 7.85715C5.71434 8.42547 5.9401 8.97051 6.34197 9.37238C6.74383 9.77424 7.28887 10 7.8572 10V10ZM7.8572 11.4286C6.90999 11.4286 6.00159 11.0523 5.33181 10.3825C4.66204 9.71276 4.28577 8.80435 4.28577 7.85715C4.28577 6.90995 4.66204 6.00154 5.33181 5.33177C6.00159 4.662 6.90999 4.28572 7.8572 4.28572C8.8044 4.28572 9.7128 4.662 10.3826 5.33177C11.0523 6.00154 11.4286 6.90995 11.4286 7.85715C11.4286 8.80435 11.0523 9.71276 10.3826 10.3825C9.7128 11.0523 8.8044 11.4286 7.8572 11.4286Z" fill="#828282"/>
</svg>
