<svg width="30" height="30" viewBox="0 0 30 30" fill="none" xmlns="http://www.w3.org/2000/svg">
<path d="M24.6429 11.7857C24.6429 9.22827 23.627 6.77557 21.8186 4.96718C20.0102 3.1588 17.5575 2.14286 15.0001 2.14286C12.4426 2.14286 9.98993 3.1588 8.18154 4.96718C6.37315 6.77557 5.35721 9.22827 5.35721 11.7857C5.35721 15.7414 8.52221 20.8971 15.0001 27.0729C21.4779 20.8971 24.6429 15.7414 24.6429 11.7857ZM15.0001 30C7.14221 22.8579 3.21436 16.785 3.21436 11.7857C3.21436 8.65995 4.45606 5.66221 6.66631 3.45196C8.87656 1.24171 11.8743 0 15.0001 0C18.1258 0 21.1236 1.24171 23.3338 3.45196C25.5441 5.66221 26.7858 8.65995 26.7858 11.7857C26.7858 16.785 22.8579 22.8579 15.0001 30Z" fill="#98999A"/>
<path d="M15 12.8571C15.5683 12.8571 16.1134 12.6314 16.5152 12.2295C16.9171 11.8277 17.1429 11.2826 17.1429 10.7143C17.1429 10.146 16.9171 9.60092 16.5152 9.19906C16.1134 8.7972 15.5683 8.57143 15 8.57143C14.4317 8.57143 13.8866 8.7972 13.4848 9.19906C13.0829 9.60092 12.8571 10.146 12.8571 10.7143C12.8571 11.2826 13.0829 11.8277 13.4848 12.2295C13.8866 12.6314 14.4317 12.8571 15 12.8571ZM15 15C13.8634 15 12.7733 14.5485 11.9695 13.7447C11.1658 12.941 10.7143 11.8509 10.7143 10.7143C10.7143 9.57765 11.1658 8.48756 11.9695 7.68383C12.7733 6.8801 13.8634 6.42857 15 6.42857C16.1366 6.42857 17.2267 6.8801 18.0305 7.68383C18.8342 8.48756 19.2857 9.57765 19.2857 10.7143C19.2857 11.8509 18.8342 12.941 18.0305 13.7447C17.2267 14.5485 16.1366 15 15 15ZM26.5714 21.4286L30 30H20.3571V27.8571H9.64286V30H0L3.42857 21.4286H26.5714ZM24.2636 21.4286H5.73643L3.165 27.8571H26.835L24.2636 21.4286Z" fill="#98999A"/>
</svg>
