<svg width="30" height="30" viewBox="0 0 30 30" fill="none" xmlns="http://www.w3.org/2000/svg">
<path d="M0 4.37428C0 1.95968 1.96 0 4.375 0H18.125C20.5425 0 22.5 1.95968 22.5 4.37428V4.99918H23.455C24.1518 4.9992 24.8348 5.19333 25.4274 5.55978C26.02 5.92624 26.4988 6.45052 26.81 7.07384L29.605 12.6604C29.8651 13.1813 30.0003 13.7555 30 14.3376V22.4963C30 23.4907 29.6049 24.4444 28.9017 25.1475C28.1984 25.8507 27.2446 26.2457 26.25 26.2457H24.8425C24.5663 27.3199 23.9405 28.2718 23.0639 28.9515C22.1872 29.6311 21.1094 30 20 30C18.8906 30 17.8128 29.6311 16.9361 28.9515C16.0595 28.2718 15.4337 27.3199 15.1575 26.2457H12.3425C12.0574 27.3523 11.4017 28.3279 10.4846 29.01C9.56752 29.692 8.4444 30.0393 7.30234 29.994C6.16027 29.9487 5.0682 29.5135 4.20803 28.761C3.34786 28.0085 2.77152 26.984 2.575 25.8582C1.80761 25.5119 1.15647 24.9515 0.699719 24.2443C0.242969 23.5372 1.13115e-05 22.7132 0 21.8714V4.37428ZM15.1575 23.7461C15.4347 22.6728 16.0608 21.722 16.9374 21.0433C17.814 20.3646 18.8913 19.9964 20 19.9967V4.37428C20 3.87708 19.8025 3.40025 19.4508 3.04867C19.0992 2.6971 18.6223 2.49959 18.125 2.49959H4.375C3.87772 2.49959 3.40081 2.6971 3.04917 3.04867C2.69754 3.40025 2.5 3.87708 2.5 4.37428V21.8714C2.5 22.3088 2.65 22.7113 2.9 23.0312C3.30951 22.0702 4.00982 21.2616 4.90257 20.7189C5.79532 20.1763 6.83565 19.9269 7.87745 20.0058C8.91925 20.0846 9.91016 20.4878 10.711 21.1587C11.5119 21.8295 12.0824 22.7344 12.3425 23.7461H15.1575V23.7461ZM22.5 20.6666C23.0755 20.9985 23.5791 21.4418 23.9813 21.9706C24.3835 22.4993 24.6763 23.1029 24.8425 23.7461H26.25C26.5815 23.7461 26.8995 23.6144 27.1339 23.38C27.3683 23.1457 27.5 22.8278 27.5 22.4963V14.9975H22.5V20.6666ZM22.5 12.4979H26.7275L24.5725 8.18865C24.4686 7.98132 24.309 7.80698 24.1117 7.68515C23.9143 7.56331 23.6869 7.49877 23.455 7.49877H22.5V12.4979ZM7.5 22.4963C6.83696 22.4963 6.20107 22.7596 5.73223 23.2284C5.26339 23.6972 5 24.333 5 24.9959C5 25.6588 5.26339 26.2946 5.73223 26.7634C6.20107 27.2321 6.83696 27.4955 7.5 27.4955C8.16304 27.4955 8.79893 27.2321 9.26777 26.7634C9.73661 26.2946 10 25.6588 10 24.9959C10 24.333 9.73661 23.6972 9.26777 23.2284C8.79893 22.7596 8.16304 22.4963 7.5 22.4963ZM17.5 24.9959C17.5 25.6588 17.7634 26.2946 18.2322 26.7634C18.7011 27.2321 19.337 27.4955 20 27.4955C20.663 27.4955 21.2989 27.2321 21.7678 26.7634C22.2366 26.2946 22.5 25.6588 22.5 24.9959C22.5 24.333 22.2366 23.6972 21.7678 23.2284C21.2989 22.7596 20.663 22.4963 20 22.4963C19.337 22.4963 18.7011 22.7596 18.2322 23.2284C17.7634 23.6972 17.5 24.333 17.5 24.9959Z" fill="#98999A"/>
</svg>
