<svg width="20" height="20" viewBox="0 0 20 20" fill="none" xmlns="http://www.w3.org/2000/svg">
<path fill-rule="evenodd" clip-rule="evenodd" d="M3.53261 0.64715C4.35098 -0.172798 5.78016 -0.276753 6.62888 0.702488L9.58926 4.11946C9.59762 4.12853 9.60586 4.13775 9.61398 4.14712C10.379 5.03033 10.2142 6.29135 9.46951 7.03963L8.68765 7.82202C9.58577 9.21645 10.771 10.4035 12.1641 11.3037L12.9458 10.5209C13.6912 9.77409 14.9488 9.60791 15.8314 10.3656L19.29 13.3344C20.277 14.1822 20.1746 15.6172 19.3546 16.438M19.3539 16.4387L16.8771 18.9198C15.8247 19.9734 14.2064 20.326 12.8451 19.665C7.38266 17.0173 2.97427 12.6029 0.334224 7.13699C0.334547 7.13766 0.334869 7.13833 0.335192 7.13899L1.39357 6.62538L0.334224 7.13699C-0.325263 5.77587 0.0266972 4.15875 1.078 3.10604L3.53261 0.64715C3.53266 0.647093 3.53255 0.647207 3.53261 0.64715M1.078 3.10604C1.07808 3.10595 1.07792 3.10612 1.078 3.10604ZM7.67675 5.50512L5.04264 2.46474L2.74322 4.76817C2.33411 5.17776 2.26754 5.73181 2.45195 6.11177L2.45292 6.11377C4.86251 11.1025 8.88613 15.1316 13.8718 17.548L13.8727 17.5485C14.2513 17.7324 14.8035 17.6665 15.2121 17.2574L17.536 14.9295L14.4843 12.31L13.4141 13.3817C13.1762 13.6255 12.8659 13.7862 12.5292 13.8398C12.1867 13.8943 11.8358 13.8349 11.5303 13.6707C11.5243 13.6675 11.5184 13.6643 11.5126 13.661C11.5084 13.6587 11.5043 13.6563 11.5002 13.6539C9.35283 12.4174 7.57156 10.6339 6.3378 8.48509C6.33234 8.47558 6.32701 8.46599 6.32182 8.45633C6.15759 8.15083 6.09813 7.79989 6.15255 7.45735C6.20601 7.12077 6.36652 6.81055 6.61004 6.57257L7.67675 5.50512ZM14.2988 12.1508C14.2988 12.1508 14.2988 12.1508 14.2988 12.1508ZM14.6115 12.1825C14.6117 12.1824 14.6114 12.1826 14.6115 12.1825ZM5.19799 2.30912C5.19805 2.30906 5.19794 2.30918 5.19799 2.30912Z" fill="#828282"/>
</svg>
