<svg width="30" height="30" viewBox="0 0 30 30" fill="none" xmlns="http://www.w3.org/2000/svg">
<path d="M28.9642 14.4835C28.953 10.646 27.4236 6.96894 24.7101 4.25544C21.9966 1.54194 18.3196 0.0125619 14.4821 0.00137278C12.0111 -0.0338738 9.57789 0.610213 7.44794 1.86336L8.58582 3.6219C9.39441 3.23325 10.2231 2.88795 11.0685 2.58746C9.35843 5.9617 8.40527 9.66845 8.27549 13.449H2.06887C2.18478 11.741 2.67948 10.0802 3.51708 8.58719L1.96543 7.24242C0.678299 9.4385 -0.000136461 11.938 1.47832e-07 14.4835C-0.000271609 16.3854 0.374134 18.2687 1.10183 20.0259C1.82953 21.783 2.89626 23.3796 4.2411 24.7245C5.58595 26.0693 7.18255 27.136 8.93972 27.8637C10.6969 28.5914 12.5802 28.9658 14.4821 28.9656C16.3262 28.9829 18.1551 28.6312 19.8612 27.9311L19.2405 25.9657C17.5445 26.6909 15.7025 27.0098 13.8614 26.8967C11.6555 23.5038 10.4376 19.5638 10.3444 15.5179H28.8608C28.9463 15.1801 28.9811 14.8315 28.9642 14.4835V14.4835ZM11.1719 26.4829C9.11489 25.8664 7.23512 24.7669 5.6894 23.2762C3.63693 21.176 2.36012 18.44 2.06887 15.5179H8.27549C8.41783 19.3422 9.40708 23.0872 11.1719 26.4829V26.4829ZM10.3444 13.449C10.4266 9.41631 11.6068 5.48231 13.758 2.07024H15.2062C17.3574 5.48231 18.5376 9.41631 18.6198 13.449H10.3444ZM20.6887 13.449C20.61 9.61556 19.617 5.85629 17.7923 2.48402C20.2262 3.18555 22.3898 4.60948 23.9967 6.56743C25.6037 8.52537 26.5784 10.9251 26.7919 13.449H20.6887Z" fill="#98999A"/>
<path d="M19.6543 21.7245C20.7969 21.7245 21.7232 20.7983 21.7232 19.6556C21.7232 18.513 20.7969 17.5868 19.6543 17.5868C18.5117 17.5868 17.5854 18.513 17.5854 19.6556C17.5854 20.7983 18.5117 21.7245 19.6543 21.7245Z" fill="#98999A"/>
<path d="M5.17214 7.2424C6.31475 7.2424 7.24101 6.31614 7.24101 5.17353C7.24101 4.03093 6.31475 3.10466 5.17214 3.10466C4.02954 3.10466 3.10327 4.03093 3.10327 5.17353C3.10327 6.31614 4.02954 7.2424 5.17214 7.2424Z" fill="#98999A"/>
<path d="M25.8609 30C25.0425 30 24.2425 29.7573 23.5621 29.3027C22.8816 28.848 22.3513 28.2018 22.0381 27.4457C21.7249 26.6896 21.643 25.8577 21.8027 25.055C21.9623 24.2524 22.3564 23.5151 22.9351 22.9364C23.5137 22.3577 24.251 21.9637 25.0537 21.804C25.8563 21.6444 26.6883 21.7263 27.4443 22.0395C28.2004 22.3526 28.8466 22.883 29.3013 23.5634C29.756 24.2439 29.9986 25.0439 29.9986 25.8622C29.9954 26.9586 29.5584 28.0092 28.7831 28.7845C28.0078 29.5597 26.9573 29.9967 25.8609 30ZM25.8609 23.7934C25.4517 23.7934 25.0517 23.9147 24.7115 24.142C24.3713 24.3694 24.1061 24.6925 23.9495 25.0705C23.7929 25.4486 23.7519 25.8645 23.8318 26.2659C23.9116 26.6672 24.1086 27.0358 24.398 27.3252C24.6873 27.6145 25.056 27.8115 25.4573 27.8914C25.8586 27.9712 26.2746 27.9302 26.6526 27.7736C27.0307 27.617 27.3538 27.3519 27.5811 27.0117C27.8084 26.6714 27.9298 26.2714 27.9298 25.8622C27.9281 25.3141 27.7096 24.7888 27.322 24.4011C26.9344 24.0135 26.4091 23.795 25.8609 23.7934V23.7934Z" fill="#98999A"/>
</svg>
