<svg width="27" height="30" viewBox="0 0 27 30" fill="none" xmlns="http://www.w3.org/2000/svg">
<path fill-rule="evenodd" clip-rule="evenodd" d="M13.1016 13C16.1391 13 18.6016 10.5376 18.6016 7.5C18.6016 4.46243 16.1391 2 13.1016 2C10.064 2 7.60156 4.46243 7.60156 7.5C7.60156 10.5376 10.064 13 13.1016 13ZM20.6016 7.5C20.6016 11.6421 17.2437 15 13.1016 15C8.95943 15 5.60156 11.6421 5.60156 7.5C5.60156 3.35786 8.95943 0 13.1016 0C17.2437 0 20.6016 3.35786 20.6016 7.5Z" fill="#98999A"/>
<path fill-rule="evenodd" clip-rule="evenodd" d="M20.6017 20C19.4971 20 18.6017 19.1046 18.6017 18H21.1297C22.2263 18.0003 23.285 18.401 24.107 19.1269C24.929 19.8528 25.4577 20.8538 25.5937 21.942L26.1802 26.628C26.2329 27.0501 26.1953 27.4787 26.0697 27.8852C25.9442 28.2917 25.7337 28.6668 25.4521 28.9857C25.1705 29.3046 24.8243 29.56 24.4365 29.7348C24.0487 29.9097 23.6281 30.0001 23.2027 30H3.00065C2.57523 30.0001 2.15464 29.9097 1.76682 29.7348C1.379 29.56 1.03281 29.3046 0.751217 28.9857C0.469628 28.6668 0.259085 28.2917 0.13356 27.8852C0.00803557 27.4787 -0.0295994 27.0501 0.0231535 26.628L0.608154 21.942C0.744198 20.8533 1.27328 19.8519 2.0959 19.1259C2.91853 18.4 3.97802 17.9996 5.07515 18H7.60165C7.60165 19.1046 6.70622 20 5.60165 20H5.07515C4.46564 19.9998 3.87626 20.2222 3.41924 20.6255C2.96229 21.0288 2.66838 21.585 2.59275 22.1898C2.59274 22.1898 2.59276 22.1897 2.59275 22.1898L2.00775 26.8758C1.99016 27.0165 2.00268 27.1596 2.04452 27.2951C2.08636 27.4306 2.15654 27.5556 2.25041 27.6619C2.34427 27.7682 2.45966 27.8533 2.58894 27.9116C2.71821 27.9699 2.85841 28 3.00022 28H23.2027C23.3445 28 23.4851 27.9699 23.6144 27.9116C23.7436 27.8533 23.859 27.7682 23.9529 27.6619C24.0468 27.5556 24.1169 27.4306 24.1588 27.2951C24.2006 27.1597 24.2132 27.017 24.1956 26.8764C24.1956 26.8763 24.1957 26.8765 24.1956 26.8764L23.6091 22.1904C23.5336 21.5859 23.2399 21.0293 22.7832 20.6261C22.3267 20.2229 21.7387 20.0003 21.1297 20C21.1295 20 21.1298 20 21.1297 20H20.6017Z" fill="#98999A"/>
</svg>
