<svg width="18" height="14" viewBox="0 0 18 14" fill="none" xmlns="http://www.w3.org/2000/svg">
<path d="M5.44559 12.0472L3.22476 8.01627H2.6011V12.0472H0V1.369H4.3656C5.20728 1.369 5.9222 1.51604 6.51037 1.81013C7.10867 2.10421 7.55486 2.50984 7.84895 3.02702C8.14303 3.53405 8.29007 4.10194 8.29007 4.73066C8.29007 5.44052 8.08725 6.07431 7.68162 6.63206C7.28613 7.1898 6.69797 7.58529 5.91713 7.81852L8.38134 12.0472H5.44559ZM2.6011 6.17572H4.21348C4.6901 6.17572 5.04503 6.0591 5.27826 5.82587C5.52164 5.59263 5.64333 5.26305 5.64333 4.83714C5.64333 4.43151 5.52164 4.11208 5.27826 3.87884C5.04503 3.6456 4.6901 3.52898 4.21348 3.52898H2.6011V6.17572Z" fill="#17ACFF"/>
<path d="M18 8.94415C18 9.50189 17.853 10.0191 17.5589 10.4957C17.2749 10.9622 16.849 11.3475 16.2811 11.6517C15.7234 11.9458 15.0592 12.1081 14.2885 12.1385V13.3706H13.315V12.1233C12.2401 12.032 11.373 11.7126 10.7139 11.165C10.0547 10.6072 9.70486 9.85175 9.6643 8.89851H12.4327C12.4936 9.50696 12.7877 9.89738 13.315 10.0698V7.66641C12.524 7.4636 11.8902 7.26585 11.4136 7.07318C10.9471 6.8805 10.5364 6.57121 10.1815 6.1453C9.82655 5.71939 9.64909 5.13629 9.64909 4.39602C9.64909 3.47321 9.9888 2.73293 10.6682 2.17519C11.3578 1.61745 12.2401 1.30309 13.315 1.2321V0H14.2885V1.2321C15.3533 1.31323 16.1949 1.62252 16.8135 2.15998C17.4321 2.69744 17.7769 3.44279 17.8479 4.39602H15.0643C15.0034 3.84842 14.7448 3.49349 14.2885 3.33124V5.68896C15.1302 5.9222 15.7792 6.13009 16.2355 6.31262C16.6918 6.49515 17.0975 6.79938 17.4524 7.22529C17.8175 7.64106 18 8.21401 18 8.94415ZM12.4023 4.27433C12.4023 4.52785 12.4784 4.7408 12.6305 4.9132C12.7927 5.08559 13.0209 5.2377 13.315 5.36953V3.25518C13.031 3.30589 12.8079 3.41744 12.6457 3.58983C12.4834 3.75208 12.4023 3.98025 12.4023 4.27433ZM14.2885 10.1154C14.5927 10.0647 14.831 9.94301 15.0034 9.75034C15.1859 9.55766 15.2772 9.31936 15.2772 9.03541C15.2772 8.77175 15.191 8.5588 15.0186 8.39655C14.8564 8.22415 14.613 8.07711 14.2885 7.95542V10.1154Z" fill="#17ACFF"/>
</svg>
