<svg width="52" height="55" viewBox="0 0 52 55" fill="none" xmlns="http://www.w3.org/2000/svg">
<path fill-rule="evenodd" clip-rule="evenodd" d="M3.98781 18.2934C4.02869 12.4789 6.3525 6.9132 10.4584 2.79593L7.62253 0C5.20724 2.39503 3.29015 5.24465 1.98186 8.38442C0.673576 11.5242 0 14.892 0 18.2934C0 21.6948 0.673576 25.0626 1.98186 28.2024C3.29015 31.3421 5.20724 34.1918 7.62253 36.5868L10.4584 33.7908C6.3525 29.6736 4.02869 24.1079 3.98781 18.2934V18.2934ZM8.22166 18.2934C8.21135 20.6489 8.67251 22.9826 9.57799 25.1571C10.4835 27.3316 11.8149 29.3029 13.494 30.955L16.3299 28.1191C15.0171 26.856 13.9831 25.3322 13.2943 23.6456C12.5857 21.9572 12.2208 20.1444 12.2208 18.3134C12.2208 16.4823 12.5857 14.6696 13.2943 12.9811C13.9728 11.2774 15.0078 9.73854 16.3299 8.46768L13.494 5.63181C11.8221 7.28922 10.4954 9.26158 9.59043 11.4349C8.68547 13.6081 8.22025 15.9392 8.22166 18.2934V18.2934ZM38.7772 31.1147L35.9413 28.2789C37.2594 27.0007 38.2979 25.467 38.9769 23.7654C39.6857 22.077 40.0507 20.2643 40.0507 18.4332C40.0507 16.6021 39.6857 14.7893 38.9769 13.1009C38.2984 11.3973 37.2634 9.85837 35.9413 8.58751L38.7772 5.79158C40.4471 7.45028 41.7725 9.42293 42.6769 11.596C43.5813 13.769 44.0469 16.0994 44.0469 18.4532C44.0469 20.8069 43.5813 23.1373 42.6769 25.3104C41.7725 27.4834 40.4471 29.456 38.7772 31.1147V31.1147ZM44.2093 0L41.3734 2.83588C43.424 4.85412 45.0526 7.2602 46.1642 9.91398C47.2758 12.5678 47.8483 15.4162 47.8483 18.2934C47.8483 21.1706 47.2758 24.019 46.1642 26.6728C45.0526 29.3266 43.424 31.7327 41.3734 33.7509L44.2093 36.5868C46.6246 34.1918 48.5417 31.3421 49.85 28.2024C51.1583 25.0626 51.8318 21.6948 51.8318 18.2934C51.8318 14.892 51.1583 11.5242 49.85 8.38442C48.5417 5.24465 46.6246 2.39503 44.2093 0V0ZM31.9272 17.6943C32.0633 19.0729 31.7175 20.4562 30.9486 21.6086C30.617 21.9461 30.2561 22.2536 29.8702 22.5272L43.6102 53.4023L39.9355 55L36.86 48.0901H14.7322L11.6567 55L7.982 53.4023L21.722 22.5272C20.8935 21.6874 20.3277 20.6244 20.0936 19.4682C19.8595 18.312 19.9674 17.1126 20.4039 16.0167C20.8711 14.9141 21.6481 13.9706 22.6407 13.3007C23.5012 12.7267 24.4956 12.3853 25.5272 12.3098C26.5588 12.2342 27.5924 12.4269 28.5274 12.8693C29.4624 13.3116 30.2669 13.9885 30.8627 14.8341C31.4585 15.6796 31.8252 16.665 31.9272 17.6943V17.6943ZM25.5564 16.3362C25.1778 16.4254 24.8318 16.6192 24.5579 16.8954C24.3433 17.149 24.1926 17.4503 24.1185 17.7741C23.9991 18.151 23.9991 18.5556 24.1185 18.9325C24.2783 19.2919 24.5259 19.6115 24.8375 19.8511C25.174 20.058 25.5608 20.1686 25.9559 20.1707C26.4823 20.1604 26.9844 19.9467 27.3567 19.5744C27.729 19.2021 27.9427 18.7 27.953 18.1736C27.9509 17.7785 27.8403 17.3917 27.6334 17.0552C27.3935 16.7411 27.0773 16.4936 26.7148 16.3362C26.3379 16.2168 25.9333 16.2168 25.5564 16.3362V16.3362ZM26.4751 24.5243H25.3967L21.9217 32.2731H29.9101L26.4751 24.5243V24.5243ZM35.2623 44.2556L31.7075 36.2672H20.2042L16.6494 44.2556H35.2623Z" fill="#303030"/>
</svg>
