<svg width="55" height="55" viewBox="0 0 55 55" fill="none" xmlns="http://www.w3.org/2000/svg">
<path d="M35.9968 54.9835C35.318 55.0634 34.739 54.8533 34.2599 54.3534C33.7807 53.8551 33.5411 53.2665 33.5411 52.5877C33.5411 51.9888 33.7607 51.4593 34.2 50.9993C34.6392 50.5409 35.1783 50.2718 35.8171 50.1919C39.5705 49.6728 42.7745 48.086 45.4291 45.4315C48.0852 42.7753 49.6728 39.5706 50.1919 35.8171C50.2718 35.1783 50.5313 34.6392 50.9705 34.2C51.4098 33.7608 51.9488 33.5411 52.5877 33.5411C53.2665 33.5411 53.8559 33.7807 54.3558 34.2599C54.8541 34.739 55.0634 35.318 54.9835 35.9968C54.4245 40.9881 52.3681 45.2606 48.8143 48.8143C45.2606 52.3681 40.9881 54.4245 35.9968 54.9835V54.9835ZM36.2963 45.2206C35.5776 45.4203 34.9387 45.2606 34.3797 44.7415C33.8206 44.2224 33.5411 43.5635 33.5411 42.7649C33.5411 42.2459 33.7312 41.7763 34.1113 41.3562C34.4899 40.9378 34.9586 40.6287 35.5177 40.429C36.7156 40.1096 37.7537 39.5107 38.6322 38.6322C39.5107 37.7537 40.1096 36.7156 40.429 35.5177C40.6287 34.9586 40.9385 34.4899 41.3586 34.1113C41.7771 33.7312 42.2459 33.5411 42.7649 33.5411C43.5635 33.5411 44.2224 33.8206 44.7415 34.3797C45.2606 34.9387 45.4203 35.5776 45.2206 36.2963C44.7015 38.4924 43.6338 40.3995 42.0175 42.0175C40.3995 43.6338 38.4924 44.7015 36.2963 45.2206ZM13.2967 53.6059C12.6977 53.6059 12.0988 53.4861 11.4998 53.2465C10.9009 53.007 10.3618 52.6676 9.88265 52.2283L1.37758 43.7233C0.938353 43.2441 0.598949 42.705 0.359369 42.1061C0.11979 41.5072 0 40.9082 0 40.3093C0 39.6704 0.11979 39.061 0.359369 38.4813C0.598949 37.9031 0.938353 37.3944 1.37758 36.9551L8.98423 29.3485C9.90262 28.4301 11.0406 27.9613 12.3982 27.9422C13.7559 27.9214 14.8939 28.3702 15.8122 29.2886L18.807 32.2833L20.484 30.6063L17.4893 27.6115C16.5709 26.6932 16.1117 25.5751 16.1117 24.2574C16.1117 22.9397 16.5709 21.8217 17.4893 20.9033L20.9033 17.4893C21.8217 16.5709 22.9501 16.1117 24.2886 16.1117C25.6254 16.1117 26.753 16.5709 27.6714 17.4893L30.6662 20.4841L32.3432 18.807L29.3485 15.8123C28.4301 14.8939 27.9709 13.7654 27.9709 12.427C27.9709 11.0901 28.4301 9.96252 29.3485 9.04413L36.9551 1.43748C37.4343 0.958318 37.9734 0.598949 38.5723 0.359369C39.1713 0.11979 39.7702 0 40.3691 0C40.9681 0 41.5567 0.11979 42.1348 0.359369C42.7146 0.598949 43.2441 0.958318 43.7233 1.43748L52.2283 9.94255C52.7075 10.3818 53.0573 10.8905 53.2777 11.4687C53.4965 12.0485 53.6059 12.6578 53.6059 13.2967C53.6059 13.8956 53.4965 14.4946 53.2777 15.0935C53.0573 15.6925 52.7075 16.2315 52.2283 16.7107L44.6217 24.3173C43.7033 25.2357 42.5749 25.6949 41.2364 25.6949C39.8996 25.6949 38.772 25.2357 37.8536 24.3173L34.8588 21.3226L33.1818 22.9996L36.1765 25.9944C37.0949 26.9128 37.5445 28.0404 37.5253 29.3772C37.5046 30.7157 37.035 31.8441 36.1166 32.7625L32.7625 36.1166C31.8441 37.035 30.7165 37.4942 29.3796 37.4942C28.0412 37.4942 26.9128 37.035 25.9944 36.1166L22.9996 33.1219L21.3226 34.7989L24.3173 37.7937C25.2357 38.7121 25.6853 39.8501 25.6662 41.2077C25.6454 42.5653 25.1758 43.7033 24.2574 44.6217L16.6508 52.2283C16.2115 52.6676 15.702 53.007 15.1223 53.2465C14.5441 53.4861 13.9355 53.6059 13.2967 53.6059ZM13.2967 48.8742L15.8122 46.3586L7.30717 37.8536L4.79159 40.3691L13.2967 48.8742ZM18.3877 43.7832L20.9033 41.2676L12.3982 32.7625L9.88265 35.2781L18.3877 43.7832ZM29.4084 32.7625L32.7625 29.4084L24.2574 20.9033L20.9033 24.2574L29.4084 32.7625ZM41.2676 20.9033L43.7832 18.3877L35.2781 9.88266L32.7625 12.3982L41.2676 20.9033ZM46.3586 15.8123L48.8742 13.2967L40.3691 4.79159L37.8536 7.30718L46.3586 15.8123Z" fill="#303030"/>
</svg>
