<svg width="19" height="17" viewBox="0 0 19 17" fill="none" xmlns="http://www.w3.org/2000/svg">
<path d="M10.0996 7.84858C9.92347 7.67589 9.6866 7.57916 9.43991 7.57916C9.19321 7.57916 8.95635 7.67589 8.78017 7.84858L5.95274 10.5818C5.85273 10.6643 5.77083 10.7666 5.71215 10.8822C5.65347 10.9978 5.61928 11.1243 5.61171 11.2537C5.60415 11.3831 5.62337 11.5128 5.66818 11.6344C5.71299 11.7561 5.78242 11.8672 5.87213 11.9608C5.96184 12.0544 6.0699 12.1285 6.18955 12.1785C6.3092 12.2284 6.43787 12.2531 6.56751 12.2511C6.69716 12.249 6.82498 12.2202 6.94299 12.1665C7.061 12.1128 7.16666 12.0353 7.25336 11.9389L8.48801 10.742V16.0576C8.48801 16.3075 8.5873 16.5472 8.76405 16.724C8.9408 16.9007 9.18052 17 9.43048 17C9.68044 17 9.92017 16.9007 10.0969 16.724C10.2737 16.5472 10.373 16.3075 10.373 16.0576V10.7891L11.5888 12.0143C11.6764 12.1027 11.7806 12.1728 11.8955 12.2206C12.0103 12.2685 12.1335 12.2931 12.2579 12.2931C12.3823 12.2931 12.5055 12.2685 12.6204 12.2206C12.7352 12.1728 12.8395 12.1027 12.9271 12.0143C13.0154 11.9267 13.0855 11.8225 13.1334 11.7076C13.1812 11.5928 13.2059 11.4696 13.2059 11.3452C13.2059 11.2208 13.1812 11.0976 13.1334 10.9827C13.0855 10.8679 13.0154 10.7636 12.9271 10.676L10.0996 7.84858Z" fill="#FFA217"/>
<path d="M14.7745 3.80533C14.3899 2.6942 13.6686 1.73057 12.7108 1.04854C11.753 0.366515 10.6065 0 9.43066 0C8.25486 0 7.1083 0.366515 6.15052 1.04854C5.19274 1.73057 4.47138 2.6942 4.08681 3.80533C3.24005 3.91874 2.44004 4.26022 1.77237 4.79323C1.1047 5.32624 0.594494 6.03073 0.296323 6.83133C-0.00184729 7.63194 -0.0767622 8.49855 0.0795924 9.33845C0.235947 10.1783 0.617689 10.9599 1.18398 11.5996C1.25239 11.7201 1.34651 11.824 1.45966 11.904C1.57281 11.984 1.7022 12.038 1.83862 12.0622C1.97503 12.0865 2.11511 12.0804 2.24889 12.0443C2.38267 12.0082 2.50685 11.9431 2.61259 11.8536C2.71833 11.7641 2.80303 11.6523 2.86066 11.5263C2.9183 11.4003 2.94744 11.2632 2.94602 11.1246C2.94459 10.9861 2.91264 10.8496 2.85244 10.7248C2.79223 10.6 2.70526 10.49 2.5977 10.4027C2.23307 9.99502 1.9945 9.49035 1.9109 8.94984C1.82731 8.40933 1.90227 7.85617 2.12672 7.35741C2.35116 6.85864 2.71545 6.43568 3.17543 6.13978C3.63541 5.84388 4.17134 5.68774 4.71827 5.69028H4.81252C5.03301 5.69473 5.24808 5.62172 5.42029 5.48395C5.59249 5.34618 5.71094 5.15239 5.755 4.9363C5.92805 4.08408 6.3904 3.3179 7.06372 2.76756C7.73703 2.21723 8.5799 1.91659 9.44951 1.91659C10.3191 1.91659 11.162 2.21723 11.8353 2.76756C12.5086 3.3179 12.971 4.08408 13.144 4.9363C13.1881 5.15239 13.3065 5.34618 13.4787 5.48395C13.6509 5.62172 13.866 5.69473 14.0865 5.69028H14.1431C14.69 5.68774 15.2259 5.84388 15.6859 6.13978C16.1459 6.43568 16.5102 6.85864 16.7346 7.35741C16.9591 7.85617 17.034 8.40933 16.9504 8.94984C16.8668 9.49035 16.6283 9.99502 16.2636 10.4027C16.1806 10.4958 16.1169 10.6044 16.0762 10.7223C16.0355 10.8402 16.0186 10.9651 16.0265 11.0896C16.0344 11.214 16.0669 11.3357 16.1221 11.4476C16.1774 11.5594 16.2543 11.6591 16.3485 11.741C16.5203 11.8925 16.7414 11.9763 16.9705 11.9766C17.1043 11.9764 17.2366 11.9478 17.3584 11.8925C17.4803 11.8373 17.589 11.7567 17.6773 11.6562C18.2593 11.0176 18.6546 10.2313 18.8198 9.38323C18.9851 8.53518 18.914 7.65801 18.6144 6.84762C18.3147 6.03723 17.7981 5.32482 17.1209 4.78827C16.4436 4.25172 15.632 3.91168 14.7745 3.80533V3.80533Z" fill="#FFA217"/>
</svg>
