<svg width="66" height="55" viewBox="0 0 66 55" fill="none" xmlns="http://www.w3.org/2000/svg">
<path d="M66 34.3844C66.0054 37.0862 65.4847 39.7626 64.4678 42.2609C63.4508 44.7591 61.9574 47.0302 60.0728 48.9446C58.1882 50.8589 55.9494 52.3789 53.4842 53.4179C51.0189 54.4569 48.3756 54.9945 45.705 55H45.661C41.1577 54.958 36.7991 53.3853 33.286 50.5347C30.2601 52.9186 26.637 54.4014 22.8239 54.8166C19.0107 55.2319 15.1587 54.563 11.7007 52.8851C8.24266 51.2073 5.31569 48.5871 3.24872 45.3188C1.18175 42.0506 0.056696 38.2639 0 34.3844V1.95862H3.8775V34.3844C3.87557 37.4809 4.72502 40.5169 6.33089 43.153C7.93676 45.7891 10.2357 47.9214 12.9708 49.3114C15.7058 50.7014 18.7691 51.2943 21.8182 51.024C24.8673 50.7536 27.7819 49.6305 30.2362 47.7804C27.039 44.0658 25.2677 39.3126 25.245 34.3872V7.84562C25.245 5.76483 26.062 3.76927 27.5164 2.29793C28.9707 0.826589 30.9432 0 33 0C35.0567 0 37.0292 0.826589 38.4836 2.29793C39.9379 3.76927 40.755 5.76483 40.755 7.84562V34.3872C40.7711 39.2974 39.0438 44.0502 35.8875 47.7804C37.6364 49.0742 39.6201 50.0068 41.7254 50.5247C43.8307 51.0427 46.0162 51.1358 48.1571 50.7989C50.298 50.462 52.3523 49.7016 54.2026 48.5612C56.0529 47.4208 57.6629 45.9226 58.9407 44.1525C60.9889 41.3152 62.1021 37.8976 62.1225 34.3844V1.95862H66V34.3844ZM36.8775 7.84283C36.8775 6.80244 36.469 5.80466 35.7418 5.06899C35.0146 4.33332 34.0284 3.92003 33 3.92003C31.9716 3.92003 30.9853 4.33332 30.2582 5.06899C29.531 5.80466 29.1225 6.80244 29.1225 7.84283V34.3844C29.128 38.3095 30.5009 42.1071 33 45.1095C35.4978 42.1064 36.8706 38.3093 36.8775 34.3844V7.84283V7.84283Z" fill="#303030"/>
</svg>
