<svg width="26" height="25" viewBox="0 0 26 25" fill="none" xmlns="http://www.w3.org/2000/svg">
<path d="M15.6 5.26316V2.63158H10.4V5.26316H15.6ZM2.6 9.21053V21.0526C2.6 21.7763 3.185 22.3684 3.9 22.3684H22.1C22.815 22.3684 23.4 21.7763 23.4 21.0526V9.21053C23.4 8.48684 22.815 7.89474 22.1 7.89474H3.9C3.185 7.89474 2.6 8.48684 2.6 9.21053ZM23.4 5.26316C24.843 5.26316 26 6.43421 26 7.89474V22.3684C26 23.8289 24.843 25 23.4 25H2.6C1.157 25 0 23.8289 0 22.3684L0.013 7.89474C0.013 6.43421 1.157 5.26316 2.6 5.26316H7.8V2.63158C7.8 1.17105 8.957 0 10.4 0H15.6C17.043 0 18.2 1.17105 18.2 2.63158V5.26316H23.4Z" fill="#303030"/>
</svg>
